<?xml version="1.0" encoding="iso-8859-1"?>
<!-- Uploaded to: SVG Repo, www.svgrepo.com, Generator: SVG Repo Mixer Tools -->
<!DOCTYPE svg PUBLIC "-//W3C//DTD SVG 1.1//EN" "http://www.w3.org/Graphics/SVG/1.1/DTD/svg11.dtd">
<svg fill="#000000" height="800px" width="800px" version="1.1" id="Capa_1" xmlns="http://www.w3.org/2000/svg" xmlns:xlink="http://www.w3.org/1999/xlink" 
	 viewBox="0 0 432.666 432.666" xml:space="preserve">
<path d="M345.098,271.735v-29.533c21.94-32.458,33.028-60.561,33.028-83.94C378.126,70.996,305.546,0,216.333,0
	S54.54,70.996,54.54,158.262c0,23.375,11.083,51.47,33.014,83.919v29.554c-7.667,2.183-13.303,9.234-13.303,17.591
	c0,10.093,8.211,18.304,18.304,18.304s18.304-8.211,18.304-18.304c0-8.357-5.637-15.409-13.304-17.592v-15.467
	c5.406,7.279,11.305,14.754,17.721,22.433v22.534c-7.668,2.182-13.306,9.234-13.306,17.593c0,10.093,8.211,18.304,18.304,18.304
	s18.304-8.211,18.304-18.304c0-8.357-5.636-15.408-13.301-17.591v-10.876c2.904,3.305,5.888,6.641,8.969,10.015
	c2.92,3.197,5.842,6.337,8.751,9.413v20.947c-7.669,2.181-13.309,9.234-13.309,17.593c0,10.093,8.211,18.304,18.304,18.304
	s18.304-8.211,18.304-18.304c0-8.356-5.634-15.406-13.299-17.591V320.17c6.109,6.231,12.066,12.112,17.71,17.553v22.514
	c-7.665,2.184-13.3,9.235-13.3,17.591c0,10.092,8.211,18.303,18.303,18.303c10.093,0,18.304-8.211,18.304-18.303
	c0-8.359-5.638-15.411-13.307-17.593v-13.014c14.868,13.916,26.347,23.759,30.626,27.373v9.681
	c-11.093,2.314-19.452,12.167-19.452,23.937c0,13.483,10.969,24.453,24.452,24.453c13.483,0,24.453-10.969,24.453-24.453
	c0-11.77-8.359-21.622-19.453-23.937v-9.681c4.278-3.613,15.752-13.451,30.612-27.36v13c-7.668,2.182-13.307,9.234-13.307,17.593
	c0,10.092,8.211,18.303,18.304,18.303c10.092,0,18.303-8.211,18.303-18.303c0-8.356-5.635-15.407-13.3-17.591v-22.5
	c5.644-5.441,11.602-11.322,17.71-17.553v10.553c-7.664,2.185-13.299,9.235-13.299,17.591c0,10.093,8.211,18.304,18.304,18.304
	c10.092,0,18.303-8.211,18.303-18.304c0-8.359-5.639-15.412-13.308-17.593v-20.932c2.914-3.081,5.841-6.226,8.766-9.428
	c3.076-3.368,6.055-6.699,8.955-9.999v10.86c-7.666,2.184-13.301,9.235-13.301,17.591c0,10.093,8.211,18.304,18.304,18.304
	s18.304-8.211,18.304-18.304c0-8.358-5.638-15.411-13.306-17.593v-22.517c6.416-7.678,12.315-15.152,17.721-22.431v15.448
	c-7.667,2.183-13.304,9.234-13.304,17.592c0,10.093,8.211,18.304,18.304,18.304s18.304-8.211,18.304-18.304
	C358.401,280.97,352.764,273.918,345.098,271.735z M100.858,289.327c0,4.579-3.725,8.304-8.304,8.304s-8.304-3.725-8.304-8.304
	s3.725-8.303,8.304-8.303S100.858,284.748,100.858,289.327z M128.577,318.828c0,4.579-3.725,8.304-8.304,8.304
	s-8.304-3.725-8.304-8.304s3.725-8.304,8.304-8.304S128.577,314.249,128.577,318.828z M156.295,348.328
	c0,4.579-3.725,8.304-8.304,8.304s-8.304-3.725-8.304-8.304s3.725-8.304,8.304-8.304S156.295,343.75,156.295,348.328z
	 M184.013,377.829c0,4.579-3.725,8.303-8.304,8.303s-8.303-3.725-8.303-8.303s3.725-8.304,8.303-8.304
	S184.013,373.25,184.013,377.829z M265.246,377.829c0,4.579-3.725,8.303-8.303,8.303s-8.304-3.725-8.304-8.303
	s3.725-8.304,8.304-8.304S265.246,373.25,265.246,377.829z M292.964,348.328c0,4.579-3.725,8.304-8.303,8.304
	s-8.304-3.725-8.304-8.304s3.725-8.304,8.304-8.304S292.964,343.75,292.964,348.328z M320.683,318.828
	c0,4.579-3.725,8.304-8.304,8.304s-8.304-3.725-8.304-8.304s3.725-8.304,8.304-8.304S320.683,314.249,320.683,318.828z
	 M230.786,408.213c0,7.969-6.483,14.453-14.453,14.453c-7.969,0-14.452-6.483-14.452-14.453c0-7.969,6.483-14.452,14.452-14.452
	C224.302,393.761,230.786,400.245,230.786,408.213z M216.333,365.72C194.204,346.848,64.54,233.044,64.54,158.262
	C64.54,76.51,132.634,10,216.333,10s151.793,66.51,151.793,148.262C368.126,233.019,238.462,346.845,216.333,365.72z
	 M340.097,297.63c-4.579,0-8.304-3.725-8.304-8.304s3.725-8.303,8.304-8.303s8.304,3.725,8.304,8.303S344.676,297.63,340.097,297.63
	z"/>
</svg>